<svg width="70" height="70" viewBox="0 0 70 70" fill="none" xmlns="http://www.w3.org/2000/svg">
  <!-- Semi-transparent background for contrast on gradient header -->
  <rect width="70" height="70" rx="14" fill="rgba(255,255,255,0.15)"/>
  <rect width="70" height="70" rx="14" fill="none" stroke="rgba(255,255,255,0.3)" stroke-width="1.5"/>

  <!-- R Letter -->
  <path d="M 16 18 L 16 52 M 16 18 L 27 18 Q 34 18 34 25 Q 34 32 27 32 L 16 32 M 27 32 L 35 52"
        stroke="#ffffff"
        stroke-width="3.5"
        stroke-linecap="round"
        stroke-linejoin="round"
        fill="none"/>

  <!-- B Letter -->
  <path d="M 40 18 L 40 52 M 40 18 L 50 18 Q 56 18 56 24.5 Q 56 31 50 31 L 40 31 M 40 35 L 51 35 Q 57 35 57 42 Q 57 52 51 52 L 40 52"
        stroke="#ffffff"
        stroke-width="3.5"
        stroke-linecap="round"
        stroke-linejoin="round"
        fill="none"/>
</svg>
